<?xml version="1.0" standalone="no"?>
<!DOCTYPE svg PUBLIC "-//W3C//DTD SVG 20010904//EN"
 "http://www.w3.org/TR/2001/REC-SVG-20010904/DTD/svg10.dtd">
<svg version="1.0" xmlns="http://www.w3.org/2000/svg"
 width="1000.000000pt" height="1000.000000pt" viewBox="0 0 1000.000000 1000.000000"
 preserveAspectRatio="xMidYMid meet">
<metadata>
Created by potrace 1.11, written by Peter Selinger 2001-2013
</metadata>
<g transform="translate(0.000000,1000.000000) scale(0.100000,-0.100000)"
fill="#000000" stroke="none">
<path d="M0 5000 l0 -5000 5000 0 5000 0 0 5000 0 5000 -5000 0 -5000 0 0
-5000z m9920 0 l0 -4920 -1392 2 -1393 3 -38 76 c-38 74 -39 77 -38 182 1 59
10 160 20 225 11 64 18 128 18 141 -2 21 6 27 63 46 103 35 257 124 327 189
82 75 153 184 241 366 106 219 155 359 204 584 28 128 30 318 5 570 -16 166
-21 190 -73 350 -117 357 -232 591 -366 746 -66 77 -75 96 -33 66 11 -7 35
-17 53 -21 38 -8 41 4 17 62 -8 19 -15 37 -15 39 0 2 30 -16 66 -41 36 -25 69
-45 75 -45 15 0 10 42 -15 126 -13 43 -22 81 -20 83 2 2 31 -22 64 -53 34 -31
68 -56 76 -56 29 0 12 257 -21 310 -12 20 9 10 38 -17 l29 -28 -6 90 c-4 50
-9 105 -12 123 l-5 33 52 -35 c28 -20 54 -36 58 -37 3 0 14 -2 24 -4 16 -3 17
4 11 101 -5 68 -3 104 3 104 6 0 22 -10 37 -21 15 -12 30 -19 33 -15 8 8 -25
230 -43 285 -10 32 -10 41 -1 34 6 -6 36 -29 66 -52 85 -66 91 -52 39 104 -16
49 -34 96 -40 103 -18 21 -2 24 56 11 31 -7 59 -9 63 -5 14 13 -41 98 -91 142
-59 51 -46 57 46 19 74 -30 78 -30 71 -6 -8 31 -70 98 -140 151 l-63 48 77 53
c191 129 263 192 318 280 48 76 123 261 172 429 13 47 49 159 79 249 64 195
67 227 22 277 -31 33 -37 35 -109 39 -83 4 -170 -11 -264 -45 -337 -124 -546
-190 -602 -190 -72 0 -167 56 -390 228 -34 26 -138 86 -230 133 -93 47 -238
123 -324 167 -168 89 -206 104 -407 162 -183 53 -269 69 -392 72 -128 4 -393
-18 -475 -39 -146 -37 -215 -45 -375 -47 -118 -1 -192 4 -261 16 -92 17 -103
17 -255 -1 -160 -19 -300 -51 -341 -77 -12 -8 -55 -27 -96 -43 -105 -42 -318
-156 -385 -206 -31 -23 -106 -68 -167 -100 -60 -32 -148 -83 -194 -113 -117
-76 -348 -177 -438 -191 -94 -14 -179 -13 -278 4 -44 8 -123 21 -175 30 -52 8
-115 23 -140 31 -215 76 -226 79 -264 64 -45 -17 -48 -98 -7 -223 7 -19 11
-50 11 -68 -2 -42 13 -140 39 -250 18 -80 23 -113 37 -224 7 -62 27 -133 48
-171 43 -79 123 -138 324 -241 17 -9 32 -19 32 -22 -1 -3 -17 -18 -38 -33 -89
-64 -248 -191 -255 -204 -9 -15 -4 -15 130 2 24 3 43 1 43 -4 0 -4 -14 -21
-31 -38 -17 -16 -50 -54 -73 -84 -73 -97 -88 -145 -28 -95 29 24 52 32 52 18
0 -29 -78 -188 -139 -284 -169 -263 -424 -504 -801 -758 -69 -46 -165 -116
-215 -156 -49 -39 -128 -98 -175 -130 -102 -72 -495 -371 -565 -430 -163 -139
-314 -306 -368 -410 -15 -27 -16 294 -17 3678 l0 3707 4920 0 4920 0 0 -4920z
m-4351 1838 c20 -57 32 -210 29 -362 -3 -128 -5 -150 -20 -160 -36 -22 -40 3
-44 266 -2 139 -1 261 2 271 8 26 21 21 33 -15z m247 -57 c8 -33 11 -116 8
-224 -4 -185 -8 -220 -30 -254 -35 -55 -46 -12 -34 122 9 97 19 300 20 378 0
56 22 42 36 -22z m-957 -51 c33 -76 45 -121 56 -200 3 -25 11 -70 16 -101 6
-30 9 -66 7 -80 l-3 -24 -18 27 c-10 15 -23 60 -28 100 -6 40 -16 93 -24 118
-45 139 -69 269 -46 245 5 -6 23 -44 40 -85z m212 49 c20 -41 46 -198 55 -332
6 -85 5 -97 -10 -103 -9 -4 -19 -4 -21 -2 -3 3 -8 54 -11 114 -3 60 -12 133
-20 163 -8 30 -16 77 -19 105 -4 28 -8 62 -11 74 -7 35 18 23 37 -19z m984
-34 c9 -68 -39 -314 -84 -427 -20 -53 -47 -23 -30 34 20 67 50 226 64 336 8
62 17 117 21 123 10 17 22 -10 29 -66z m250 -67 c-21 -93 -93 -290 -135 -367
-18 -35 -33 -25 -27 17 30 191 87 372 144 456 l28 41 3 -38 c2 -21 -4 -70 -13
-109z m-988 56 c12 -43 16 -108 17 -241 1 -100 -2 -185 -7 -189 -4 -4 -13 -2
-20 5 -8 8 -12 58 -12 169 -1 86 -5 198 -9 247 -9 104 4 108 31 9z m-743 15
c39 -46 56 -83 81 -178 44 -167 50 -214 33 -257 -14 -36 -16 -37 -27 -17 -6
12 -29 91 -51 175 -21 85 -46 169 -53 188 -20 48 -31 120 -19 120 6 0 22 -14
36 -31z m2016 -21 c-1 -50 -30 -160 -55 -205 -15 -26 -35 -66 -44 -88 -25 -62
-104 -194 -120 -200 -11 -4 -12 4 -7 42 14 95 47 195 100 302 73 144 126 207
126 149z m-2277 -37 c38 -45 107 -177 133 -254 26 -76 30 -127 13 -158 -10
-20 -11 -20 -30 -3 -10 9 -19 23 -19 30 0 19 -25 89 -86 246 -30 76 -54 144
-54 153 0 23 16 18 43 -14z m2490 -103 c-2 -36 -55 -146 -126 -263 -81 -134
-96 -155 -112 -155 -14 0 -13 4 25 135 21 71 122 255 158 286 39 34 58 33 55
-3z m-2783 -88 c109 -78 177 -151 220 -237 35 -68 37 -83 11 -83 -12 0 -49 33
-93 81 -40 45 -110 121 -155 170 -46 48 -83 92 -83 97 0 6 -3 17 -6 26 -3 9
-3 16 1 16 3 0 51 -32 105 -70z m2930 -71 c-63 -148 -121 -255 -169 -309 -27
-30 -52 -52 -57 -48 -23 23 92 266 176 373 76 95 93 89 50 -16z m-3217 -59
c77 -36 264 -184 298 -236 60 -91 61 -94 44 -101 -11 -4 -31 8 -58 34 -23 22
-55 50 -72 62 -16 12 -72 59 -123 104 -51 44 -113 94 -139 111 -89 59 -56 76
50 26z m3527 -24 c-17 -44 -78 -121 -141 -176 -122 -107 -220 -176 -232 -164
-13 13 90 143 175 219 142 128 219 175 198 121z m-3758 -113 c99 -36 240 -125
288 -182 64 -75 30 -67 -89 20 -37 26 -114 69 -171 94 -100 44 -140 68 -140
87 0 15 37 9 112 -19z m3953 -20 c-10 -16 -29 -41 -44 -57 -27 -29 -125 -106
-136 -106 -4 0 -44 -22 -90 -49 -88 -53 -130 -66 -130 -42 0 16 81 77 268 202
128 86 162 99 132 52z m-1989 -138 c-9 -144 -28 -189 -42 -99 -9 62 1 191 17
210 21 26 31 -20 25 -111z m-292 90 c24 -24 43 -144 37 -237 -1 -26 -16 -22
-29 8 -10 21 -42 200 -42 234 0 15 16 12 34 -5z m773 -112 c-6 -115 -20 -183
-38 -183 -12 0 -11 116 2 203 10 65 22 97 37 97 3 0 2 -53 -1 -117z m-948 24
c25 -73 39 -187 24 -187 -14 0 -28 37 -54 142 -32 130 -9 164 30 45z m698 -14
c-3 -43 -11 -96 -18 -118 -11 -39 -12 -39 -21 -15 -14 36 -6 173 11 193 27 34
34 19 28 -60z m-863 -15 c32 -104 50 -188 42 -195 -8 -8 -70 131 -86 193 -13
51 -9 84 9 84 6 0 22 -37 35 -82z m1332 2 c-9 -79 -33 -192 -48 -227 -12 -28
-13 -28 -16 18 -3 41 31 239 44 261 3 4 10 8 16 8 7 0 8 -20 4 -60z m-2848 10
c62 -20 170 -79 208 -112 11 -10 25 -18 31 -18 13 0 115 -81 109 -87 -5 -6
-95 40 -161 81 -27 18 -66 38 -85 46 -52 20 -210 99 -210 105 0 11 50 4 108
-15z m3030 -52 c-11 -57 -52 -174 -69 -195 -39 -46 -35 24 8 147 29 82 39 100
58 100 9 0 10 -12 3 -52z m181 -19 c-24 -62 -35 -83 -52 -101 -7 -7 -27 -37
-46 -65 -31 -50 -51 -66 -51 -43 0 36 144 260 167 260 1 0 -6 -23 -18 -51z
m-1922 9 c17 -18 51 -64 77 -102 43 -64 56 -97 39 -95 -9 0 -150 191 -159 214
-10 25 10 17 43 -17z m-112 -119 c56 -54 105 -119 89 -119 -34 0 -214 169
-214 201 0 18 65 -25 125 -82z m2275 83 c0 -15 -45 -67 -126 -144 -83 -80 -98
-91 -87 -60 25 67 213 248 213 204z m-2577 -73 c89 -45 245 -195 224 -216 -10
-9 -88 42 -142 94 -28 27 -74 66 -103 88 -75 57 -64 76 21 34z m2777 -48 c-24
-46 -240 -204 -256 -188 -7 7 145 146 195 178 54 35 77 38 61 10z m-2954 -65
c84 -30 234 -128 234 -153 0 -21 -30 -15 -64 14 -36 31 -122 70 -223 103 -84
27 -97 50 -29 50 24 0 61 -6 82 -14z m3066 -82 c18 -17 -208 -174 -252 -174
-27 0 -1 25 103 99 104 75 135 90 149 75z m-3188 -74 c82 -22 176 -64 176 -79
0 -17 -32 -21 -65 -7 -18 8 -59 19 -92 25 -32 7 -76 16 -98 21 -22 5 -62 12
-88 15 -79 10 -44 42 49 44 22 1 75 -8 118 -19z m3347 -174 c-13 -14 -53 -33
-99 -46 -42 -13 -94 -31 -117 -41 -44 -20 -100 -26 -90 -9 8 14 136 78 200
101 28 10 68 18 89 18 l39 1 -22 -24z m-3386 -23 c51 -14 71 -24 73 -37 4 -17
-1 -18 -44 -12 -27 3 -115 9 -196 13 -152 6 -175 13 -162 48 7 16 19 17 133
12 73 -3 155 -14 196 -24z m680 -117 c81 -14 122 -34 237 -112 87 -59 118 -94
118 -131 0 -19 -11 -12 -67 45 -50 49 -91 78 -153 109 -121 59 -151 67 -239
60 -136 -11 -281 -79 -384 -180 -38 -37 -71 -66 -74 -63 -7 6 33 79 62 114 27
32 156 107 254 148 65 27 138 30 246 10z m1859 -29 c42 -20 96 -50 121 -68 46
-33 125 -130 125 -154 0 -8 5 -17 10 -20 14 -9 12 -25 -2 -25 -7 0 -42 38 -78
84 -93 121 -122 136 -282 151 -143 14 -370 -65 -454 -157 -23 -24 -43 -51 -46
-59 -3 -8 -9 -11 -13 -7 -11 10 39 88 87 135 105 102 271 167 404 158 32 -2
81 -17 128 -38z m-2586 -13 c18 -8 32 -19 32 -24 0 -15 -71 -30 -139 -30 -36
0 -78 -4 -95 -10 -17 -5 -66 -21 -109 -35 -109 -35 -129 -33 -87 13 24 25 83
57 155 83 66 23 200 25 243 3z m670 -46 c-5 -24 -13 -47 -19 -52 -12 -13 -12
45 1 79 16 41 29 21 18 -27z m-88 -18 c1 -19 2 -39 1 -45 -2 -19 -21 20 -22
45 0 21 -2 22 -8 7 -6 -17 -8 -16 -19 8 -15 32 -9 43 13 25 9 -7 15 -9 14 -4
-3 20 2 28 10 14 5 -8 10 -31 11 -50z m30 6 c0 -39 -6 -31 -14 19 -5 29 -4 36
3 25 6 -8 11 -28 11 -44z m24 12 c-9 -59 -14 -60 -14 -5 0 26 5 47 10 47 6 0
8 -16 4 -42z m66 2 c-11 -21 -20 -45 -20 -52 1 -7 12 8 26 35 13 26 29 47 34
47 16 0 12 -15 -15 -55 -37 -54 -25 -54 14 0 18 25 36 45 40 45 24 0 17 -19
-21 -57 -54 -55 -42 -56 18 -1 29 27 48 38 55 31 6 -6 -9 -22 -45 -47 -53 -37
-55 -37 -85 -21 -36 18 -34 13 -20 71 7 26 17 44 25 44 11 0 10 -9 -6 -40z
m-170 -21 c30 -57 19 -72 -15 -21 -15 23 -32 42 -37 42 -5 0 4 -17 21 -37 38
-47 40 -65 4 -32 -25 22 -26 22 -9 1 31 -36 14 -33 -37 8 -28 23 -43 41 -37
45 6 4 19 0 29 -9 25 -22 38 -20 17 3 -17 18 -17 20 1 30 31 18 42 13 63 -30z
m1060 14 c0 -39 -31 -196 -42 -213 -10 -16 -3 160 8 213 8 35 34 36 34 0z
m809 -25 c0 -33 -2 -38 -9 -23 -12 28 -12 65 0 65 6 0 10 -19 9 -42z m22 -14
l-9 -39 -1 41 c-1 22 2 44 6 48 12 12 14 -8 4 -50z m45 39 c-3 -10 -8 -30 -12
-45 -9 -39 -21 -35 -17 5 6 45 11 57 23 57 6 0 9 -8 6 -17z m14 -48 c-15 -35
-19 -41 -16 -20 6 40 27 93 32 80 2 -5 -5 -32 -16 -60z m955 44 c85 -14 165
-38 165 -49 0 -13 -25 -13 -165 6 -66 9 -153 19 -194 23 -76 6 -107 26 -54 34
37 6 172 -2 248 -14z m-1102 -18 c28 -47 21 -72 -8 -26 -13 22 -25 43 -25 48
0 17 17 5 33 -22z m34 -11 c12 -48 2 -53 -15 -7 -14 39 -15 47 -4 47 4 0 13
-18 19 -40z m173 35 c0 -3 -10 -19 -22 -35 -12 -16 -19 -32 -16 -35 3 -3 16
10 29 30 25 36 45 50 53 36 3 -4 -17 -27 -43 -52 l-48 -45 3 32 c3 36 20 74
34 74 6 0 10 -2 10 -5z m-232 -45 c31 -55 28 -60 -13 -14 -37 42 -42 54 -22
54 6 0 22 -18 35 -40z m-1498 -22 c-34 -22 -64 -37 -68 -34 -7 7 -9 5 57 49
30 20 59 33 64 30 5 -3 -19 -23 -53 -45z m622 6 c9 -50 8 -161 -1 -194 -6 -21
-9 -15 -19 35 -17 90 -25 172 -18 190 10 27 30 11 38 -31z m847 7 c36 -45 36
-47 15 -55 -16 -6 -89 39 -98 62 -10 24 19 11 57 -25 22 -22 35 -29 29 -18 -6
11 -20 29 -31 39 -12 11 -21 23 -21 28 0 18 20 6 49 -31z m341 21 c-13 -9 -45
-32 -70 -51 -48 -37 -38 -19 20 36 19 18 44 32 55 32 18 0 18 -2 -5 -17z
m-2179 -24 c48 -38 70 -74 23 -40 -56 41 -89 71 -77 72 6 0 31 -15 54 -32z
m2208 2 c-12 -10 -48 -32 -78 -50 -46 -26 -52 -28 -36 -10 30 34 117 90 128
83 5 -3 -1 -14 -14 -23z m-2227 -27 c34 -26 56 -49 50 -51 -7 -2 -10 -8 -7
-13 8 -12 -19 -1 -75 29 -70 38 -83 49 -70 57 6 3 34 -9 63 -28 71 -46 81 -52
74 -41 -3 6 -28 26 -56 44 -45 31 -62 50 -45 50 3 0 33 -21 66 -47z m486 38
c10 -6 -5 -17 -51 -39 -36 -16 -76 -33 -89 -37 -20 -5 -21 -5 -6 7 9 7 31 22
49 33 85 52 77 49 97 36z m1322 -48 c27 -20 47 -40 44 -45 -6 -10 -45 12 -94
52 -53 45 -11 38 50 -7z m460 29 c0 -9 -18 -20 -89 -57 -28 -15 -50 -30 -47
-32 3 -3 35 11 71 32 39 21 73 34 82 31 24 -9 8 -21 -75 -55 -64 -27 -76 -29
-88 -16 -13 12 -12 16 8 28 13 8 46 28 73 45 51 33 65 38 65 24z m-1740 -12
c0 -5 -5 -10 -11 -10 -6 0 -45 -14 -86 -30 -106 -42 -115 -32 -12 13 88 38
109 43 109 27z m1300 -79 c0 -3 -4 -12 -9 -20 -7 -11 -21 -8 -75 18 -36 17
-71 31 -76 31 -6 0 -10 5 -10 10 0 16 17 12 81 -21 33 -16 65 -29 71 -27 5 2
-22 19 -61 38 -62 30 -69 37 -55 47 14 10 26 6 75 -29 33 -22 59 -44 59 -47z
m-1889 42 c27 -14 47 -28 45 -30 -5 -5 -116 44 -116 51 0 12 24 5 71 -21z
m607 5 c-3 -7 -22 -16 -44 -20 -21 -4 -52 -10 -69 -14 -42 -10 -29 1 30 24 59
24 88 27 83 10z m-608 -47 c99 -30 98 -29 74 -30 -12 -1 -54 6 -93 15 -52 12
-71 20 -71 33 -1 14 -2 13 -11 -2 -6 -11 -8 -33 -5 -50 6 -29 5 -30 -9 -16
-24 24 -25 51 -2 76 16 18 22 20 31 9 6 -7 45 -23 86 -35z m1699 27 c-14 -25
-17 -130 -6 -173 l8 -30 -26 30 c-55 65 -59 73 -44 103 12 24 68 92 76 92 2 0
-2 -10 -8 -22z m-1010 -84 c-17 -34 -68 -88 -75 -82 -2 3 0 17 6 32 5 15 10
55 10 89 l0 62 37 -37 c35 -36 36 -38 22 -64z m1691 83 c0 -11 -129 -51 -138
-42 -2 2 119 51 136 54 1 1 2 -5 2 -12z m-1770 -21 c0 -14 -60 -26 -128 -26
-49 0 -36 8 39 25 83 17 89 18 89 1z m1127 8 c-3 -3 -12 -4 -19 -1 -8 3 -5 6
6 6 11 1 17 -2 13 -5z m1257 -19 c82 -25 175 -68 233 -108 79 -53 6 -46 -113
12 -43 21 -116 53 -161 72 -130 52 -103 68 41 24z m-1208 -20 c69 -25 64 -26
-43 -10 -27 4 -43 12 -43 21 0 19 5 18 86 -11z m599 14 c4 -6 5 -12 3 -14 -8
-9 -188 -32 -188 -24 0 7 107 37 172 48 4 0 10 -4 13 -10z m-2377 -30 c-11 -6
-42 -6 -85 -1 -7 1 -13 8 -13 15 0 11 11 12 56 4 31 -6 50 -14 42 -18z m2425
8 c13 -21 13 -25 -4 -46 l-19 -23 0 46 c0 25 2 46 4 46 2 0 10 -10 19 -23z
m-2809 -8 c13 -12 3 -14 -216 -59 -21 -4 -55 -19 -76 -32 -47 -32 -118 -68
-132 -68 -28 0 -2 26 81 80 86 56 107 66 204 89 43 10 124 4 139 -10z m986 0
c0 -5 -46 -9 -102 -9 -56 0 -99 2 -96 5 8 8 159 22 181 17 9 -3 17 -8 17 -13z
m1777 -15 c5 -15 -46 -24 -131 -23 l-71 1 85 18 c94 20 112 20 117 4z m-597
-4 c0 -5 -10 -10 -22 -10 -13 0 -33 -3 -45 -6 -17 -5 -23 -2 -23 10 0 12 10
16 45 16 25 0 45 -4 45 -10z m-1695 -9 c16 -6 12 -11 -28 -26 -25 -10 -45 -20
-43 -24 2 -3 -9 -6 -25 -6 -50 0 -36 19 26 37 33 9 51 17 40 17 -11 0 -42 -6
-69 -14 -48 -15 -76 -9 -76 16 0 11 147 11 175 0z m511 -2 c12 -21 -11 -27
-71 -18 -33 4 -75 9 -93 11 -18 1 -36 6 -38 10 -3 4 40 8 95 8 61 0 102 -4
107 -11z m671 -41 c-5 -52 -47 -191 -60 -205 -14 -13 -6 66 14 142 32 123 56
156 46 63z m558 26 l-40 -14 44 6 c28 4 41 3 37 -4 -3 -6 -1 -12 4 -14 6 -2
-25 -20 -70 -40 -44 -20 -82 -32 -85 -28 -6 10 39 36 99 56 l41 14 -40 -6
c-21 -3 -52 -12 -67 -20 -31 -16 -48 -18 -48 -5 0 5 19 17 43 25 33 13 35 15
12 12 -16 -3 -38 -8 -47 -11 -13 -5 -18 -2 -18 8 0 10 12 18 33 21 70 12 83
13 112 14 28 0 28 -1 -10 -14z m-1267 -18 c30 -7 39 -16 26 -28 -3 -3 -33 3
-67 13 -34 10 -69 19 -77 18 -8 0 14 -9 50 -20 69 -22 97 -39 65 -39 -14 0
-16 -3 -7 -8 9 -6 6 -12 -13 -22 -22 -12 -28 -10 -62 12 -39 25 -73 41 -73 33
0 -2 22 -16 50 -31 27 -15 47 -31 44 -35 -11 -18 -38 -8 -81 31 -24 23 -48 38
-53 35 -5 -3 -11 -1 -14 4 -10 15 13 24 29 11 8 -6 18 -9 23 -6 6 3 35 -5 66
-19 66 -29 63 -29 63 -11 0 9 -28 22 -74 36 -40 12 -75 25 -78 29 -5 10 137 7
183 -3z m1817 4 c-7 -11 -125 -11 -170 0 -20 5 4 8 73 9 67 1 101 -3 97 -9z
m-2315 -40 c-38 -32 -46 -35 -55 -20 -3 5 11 18 32 29 54 29 63 26 23 -9z m28
-17 c-21 -20 -41 -33 -45 -29 -8 8 54 66 71 66 6 0 -6 -17 -26 -37z m2264 22
c-3 -12 -104 -8 -135 5 -15 6 3 9 58 7 48 -1 79 -6 77 -12z m-2234 -39 c-20
-32 -38 -46 -38 -30 0 8 54 73 58 69 2 -1 -7 -19 -20 -39z m1778 28 c3 -8
-107 -94 -120 -94 -20 0 2 22 55 55 33 20 58 39 55 43 -3 3 -23 -6 -43 -20
-79 -52 -92 -58 -98 -47 -9 14 -10 13 65 48 64 31 81 34 86 15z m-1482 -105
c-10 -17 -24 -9 -44 29 -11 20 -27 48 -37 62 -9 14 7 1 36 -28 28 -30 49 -58
45 -63z m1821 78 c51 -18 56 -22 39 -30 -16 -6 -34 -2 -72 17 -50 25 -86 58
-46 42 10 -5 46 -17 79 -29z m-18 27 c-3 -3 -12 -4 -19 -1 -8 3 -5 6 6 6 11 1
17 -2 13 -5z m-1852 -85 c13 -25 11 -39 -5 -39 -4 0 -13 18 -20 40 -7 22 -19
45 -27 51 -18 16 -16 5 7 -41 22 -44 24 -50 11 -50 -5 0 -11 8 -14 18 -3 9
-12 34 -21 55 -10 22 -12 36 -7 32 6 -3 11 0 11 7 0 15 43 -34 65 -73z m69 22
c11 -12 16 -24 13 -27 -9 -9 -63 37 -76 64 l-11 24 27 -20 c16 -11 37 -29 47
-41z m1866 50 c15 -4 20 -10 14 -14 -7 -4 -29 0 -50 7 -31 12 -34 15 -14 14
14 0 36 -3 50 -7z m-2160 -41 c-7 -16 -16 -30 -21 -30 -13 0 -11 8 8 41 21 36
30 29 13 -11z m30 -9 c-6 -23 -15 -41 -20 -41 -14 0 -12 12 6 55 20 48 29 39
14 -14z m60 -17 c0 -30 -4 -54 -10 -54 -6 0 -10 27 -10 61 0 37 4 58 10 54 6
-3 10 -31 10 -61z m35 -13 c5 -32 4 -42 -5 -39 -7 2 -13 29 -15 63 -4 65 7 51
20 -24z m1629 17 c-21 -29 -39 -55 -40 -57 -2 -2 -11 0 -20 3 -15 6 -8 16 36
61 30 30 56 53 58 51 2 -2 -14 -28 -34 -58z m1149 12 c98 -49 260 -165 254
-183 -7 -20 -31 -12 -92 35 -70 52 -144 95 -235 134 -77 33 -92 43 -84 56 11
17 69 1 157 -42z m-894 -64 c-12 -13 -19 -4 -54 59 l-27 50 46 -50 c28 -31 41
-54 35 -59z m7 68 c24 -19 44 -40 44 -45 0 -17 -25 -9 -45 13 -68 77 -67 88 1
32z m76 -26 c-7 -7 -23 0 -51 23 -23 18 -41 34 -41 36 0 2 23 -8 51 -23 36
-18 48 -29 41 -36z m-237 -3 c7 -51 3 -76 -10 -64 -11 11 -17 119 -7 119 6 0
14 -25 17 -55z m80 -42 c4 -17 2 -23 -8 -23 -16 0 -48 98 -39 115 6 9 32 -43
47 -92z m-1780 51 c17 -42 19 -54 5 -54 -8 0 -30 60 -30 83 0 17 11 4 25 -29z
m1730 -23 c7 -29 9 -51 4 -51 -12 0 -16 13 -22 68 -7 55 0 48 18 -17z m85 -28
c0 -26 -16 -12 -29 25 -24 65 -24 68 3 27 14 -22 26 -46 26 -52z m-1914 21
c-7 -19 -27 -8 -21 11 15 46 18 51 23 27 2 -13 1 -30 -2 -38z m1734 -19 c-7
-18 -14 -25 -20 -19 -7 7 -4 26 8 54 15 40 17 42 20 19 2 -14 -2 -38 -8 -54z
m-100 40 c-13 -14 -26 -22 -29 -19 -3 3 5 14 19 24 34 27 38 25 10 -5z m-2202
-17 c2 -10 -3 -18 -10 -18 -22 0 -164 -72 -292 -149 -66 -39 -123 -71 -128
-71 -33 0 59 103 142 160 110 74 174 100 245 97 29 -2 41 -7 43 -19z m2335
-15 c5 -26 3 -33 -9 -33 -12 0 -15 6 -10 23 3 12 6 28 6 36 0 22 6 9 13 -26z
m-73 -3 c-6 -12 -14 -19 -17 -17 -2 3 1 15 7 27 6 12 14 19 17 17 2 -3 -1 -15
-7 -27z m1123 -125 c61 -36 131 -81 154 -100 41 -34 147 -174 138 -183 -6 -7
-42 19 -95 68 -68 63 -174 140 -275 200 -49 29 -92 55 -94 56 -1 2 0 7 4 13
14 23 60 8 168 -54z m-3340 -40 c0 -6 -45 -41 -101 -80 -58 -39 -127 -97 -158
-133 -31 -34 -65 -67 -76 -73 -18 -10 -19 -8 -13 13 11 38 71 124 115 164 43
40 121 88 180 110 38 14 51 14 53 -1z m1505 -40 c23 -29 28 -30 155 -41 121
-11 281 -49 346 -83 9 -5 75 -21 146 -35 72 -15 162 -36 200 -47 39 -10 131
-35 205 -55 161 -43 295 -94 370 -142 109 -69 366 -268 430 -332 193 -196 348
-379 400 -473 23 -40 45 -79 50 -87 5 -8 18 -35 29 -60 11 -25 35 -81 54 -126
46 -105 142 -402 156 -479 5 -33 15 -112 21 -175 7 -63 13 -128 15 -145 3 -16
4 -93 5 -170 0 -121 -4 -156 -29 -260 -64 -265 -107 -385 -212 -592 -82 -162
-147 -260 -208 -313 -25 -23 -54 -48 -63 -57 -60 -55 -275 -155 -361 -168
-321 -49 -374 -55 -484 -55 -186 0 -363 44 -426 105 -47 46 -92 112 -117 172
l-20 48 30 -35 c16 -19 30 -43 30 -52 0 -10 10 -23 23 -29 12 -7 40 -27 62
-44 138 -111 353 -149 601 -106 125 22 147 29 272 87 41 19 77 34 81 34 16 0
128 85 184 139 101 96 166 221 232 441 63 210 60 386 -11 633 -38 134 -86 242
-147 337 -164 252 -324 452 -474 590 -134 123 -529 362 -637 386 -17 4 -36 14
-43 23 -7 9 -13 11 -13 5 0 -6 -13 -9 -30 -6 -29 4 -31 3 -24 -22 4 -16 2 -26
-5 -26 -7 0 -11 -21 -11 -52 0 -59 -21 -147 -27 -113 -10 54 -27 106 -38 115
-9 8 -14 0 -18 -34 -7 -51 -35 -126 -47 -126 -5 0 -11 8 -14 18 -6 19 -59 82
-68 82 -3 0 -8 -14 -12 -32 -3 -18 -21 -53 -39 -79 l-32 -47 -30 57 c-16 31
-34 56 -40 56 -5 0 -11 -18 -13 -39 -2 -24 -15 -56 -34 -83 -33 -45 -48 -47
-48 -8 0 30 -38 120 -47 111 -4 -4 -9 -18 -11 -33 -5 -38 -66 -146 -75 -132
-1 2 -11 30 -21 62 -11 31 -22 57 -25 57 -4 0 -26 -43 -51 -96 -34 -76 -46
-93 -52 -78 -70 176 -76 189 -84 169 -4 -11 -28 -53 -53 -94 -42 -70 -45 -73
-54 -50 -5 13 -9 44 -8 69 1 82 -13 81 -66 -3 -26 -42 -51 -77 -55 -77 -10 0
-21 58 -22 123 -1 31 -6 57 -11 57 -22 -1 9 -200 32 -207 6 -2 30 31 54 73
l44 76 10 -75 c6 -42 13 -78 16 -81 9 -10 26 10 72 88 l47 80 20 -47 c65 -151
59 -142 75 -126 9 8 31 50 49 93 31 70 35 76 45 57 6 -11 14 -41 17 -66 4 -25
10 -45 13 -45 8 0 85 116 96 145 7 18 9 17 21 -10 7 -16 13 -43 14 -60 1 -63
15 -60 64 13 25 38 46 78 46 88 0 14 6 9 21 -15 15 -26 20 -45 16 -73 -3 -21
-1 -38 3 -38 8 0 52 69 98 153 12 23 22 37 23 32 0 -6 0 -59 -1 -120 -1 -124
-16 -211 -64 -370 -18 -60 -44 -148 -56 -195 -13 -47 -41 -128 -62 -180 -22
-52 -57 -142 -78 -200 -21 -58 -47 -125 -57 -149 l-19 -43 -25 88 c-31 109
-49 120 -49 32 0 -34 -12 -118 -26 -186 l-27 -123 -32 93 c-26 77 -68 182
-145 366 -10 24 -29 30 -31 10 -1 -14 -1 -17 10 -149 4 -52 7 -95 5 -97 -5 -7
-115 181 -167 284 -107 213 -194 456 -231 644 -24 121 -23 151 6 194 l26 37
-5 -64 c-3 -35 -1 -72 4 -82 9 -15 15 -11 43 31 18 27 42 59 53 71 11 13 18
25 15 28 -3 3 -22 -16 -43 -42 -21 -27 -43 -52 -48 -58 -6 -6 -7 21 -3 75 l6
85 -28 -30 c-15 -17 -44 -51 -64 -75 l-37 -45 -1 71 c0 60 4 76 28 115 46 72
47 76 25 56 -12 -10 -27 -32 -33 -48 -7 -16 -15 -27 -18 -24 -5 5 -37 -28 -99
-102 -20 -24 -40 -43 -46 -43 -9 0 -7 43 9 133 4 22 3 37 -3 37 -6 0 -40 -23
-77 -51 -37 -28 -69 -49 -71 -47 -8 7 17 93 40 142 27 57 25 68 -8 40 -12 -11
-42 -33 -67 -48 -25 -16 -56 -38 -69 -50 l-24 -21 18 35 c10 19 34 58 53 87
18 28 32 56 28 61 -10 16 -175 -25 -249 -61 -71 -35 -238 -147 -355 -239 -92
-72 -245 -256 -306 -370 -27 -49 -68 -185 -91 -303 -20 -101 -8 -412 20 -525
13 -54 24 -123 70 -450 36 -252 105 -464 196 -600 41 -61 144 -166 200 -204
58 -40 225 -125 294 -151 278 -105 846 -107 1031 -4 144 80 245 159 305 239
15 19 30 32 34 28 16 -15 -100 -199 -144 -226 -14 -9 -56 -38 -91 -63 -127
-91 -384 -204 -575 -253 -242 -61 -552 -78 -707 -38 -137 35 -277 89 -348 134
-36 23 -76 48 -88 55 -43 26 -254 236 -324 323 -79 98 -158 247 -319 600 -197
431 -269 746 -269 1165 0 191 48 597 85 720 9 28 20 66 26 85 17 56 99 220
142 285 106 158 254 305 427 424 41 28 97 67 124 86 64 44 265 143 386 188
110 42 369 111 585 157 199 42 321 72 435 109 52 16 129 33 170 36 83 7 114
22 138 66 13 22 19 26 27 16 6 -7 20 -26 33 -42z m1765 -81 c72 -37 207 -167
280 -270 68 -95 15 -63 -117 71 -108 110 -132 129 -199 160 -42 19 -77 39 -77
45 0 16 78 12 113 -6z m-4983 -504 c0 -22 -65 -107 -149 -193 -75 -78 -271
-217 -306 -217 -3 0 -5 9 -5 20 0 12 23 38 59 67 100 81 222 188 306 267 44
41 83 75 88 76 4 0 7 -9 7 -20z m8 -437 c-46 -70 -212 -222 -323 -298 -60 -41
-113 -75 -117 -75 -4 0 -31 -14 -60 -31 -122 -72 -129 -48 -10 34 41 29 98 68
126 87 28 20 96 67 151 105 138 95 171 122 212 178 41 56 58 56 21 0z m4072
-200 c0 -9 16 -61 34 -117 35 -103 45 -144 71 -296 8 -47 23 -128 35 -180 76
-347 89 -850 29 -1057 -27 -90 -105 -199 -163 -226 -68 -32 -97 -32 -134 0
l-33 28 54 0 c69 0 85 13 137 115 41 82 66 184 73 305 11 170 -53 584 -123
795 -16 47 -40 126 -53 175 -34 120 -60 192 -85 235 -20 34 -21 37 -5 89 12
44 17 51 25 37 5 -9 12 -42 15 -72 4 -40 9 -52 18 -44 14 11 27 54 50 167 16
75 19 81 36 72 11 -5 19 -17 19 -26z m-3940 -61 c0 -5 -20 -32 -45 -61 -25
-30 -59 -73 -76 -97 -64 -94 -545 -481 -568 -458 -9 9 115 125 184 171 105 71
196 154 277 251 117 141 179 202 205 202 13 0 23 -4 23 -8z m-1023 -59 c-31
-57 -282 -293 -422 -395 -50 -36 -286 -168 -301 -168 -22 0 84 90 181 155 106
71 189 140 325 270 89 86 217 181 228 171 2 -2 -3 -17 -11 -33z m1497 -45
c-47 -91 -263 -368 -319 -409 -20 -14 -20 -14 -1 16 59 93 273 384 299 407 38
34 44 30 21 -14z m2040 -93 c-1 -70 -5 -100 -17 -113 -26 -30 -104 -194 -150
-318 -98 -265 -112 -364 -103 -749 3 -154 10 -318 15 -365 6 -47 12 -144 14
-215 3 -96 9 -140 21 -163 9 -18 15 -32 12 -32 -5 0 27 -103 47 -150 25 -56
72 -115 107 -132 29 -14 39 -14 76 -3 24 7 66 29 94 50 27 20 50 33 50 29 0
-11 -67 -126 -87 -149 -66 -75 -139 -87 -211 -34 -72 53 -177 251 -242 454
-16 50 -31 108 -34 130 -15 120 -37 300 -45 370 -5 44 -8 195 -7 335 2 200 6
273 20 340 10 47 22 103 26 125 4 22 13 65 19 95 6 30 13 64 15 75 8 41 46
125 141 310 92 180 117 225 101 181 -12 -33 -19 -136 -10 -136 5 0 40 36 78
80 39 44 70 80 70 80 1 0 0 -43 0 -95z m-835 -147 c-12 -23 -108 -154 -142
-194 -21 -24 -68 -121 -87 -178 -16 -48 -31 -30 -19 24 21 94 105 231 200 329
52 54 70 61 48 19z m2560 -35 c73 -229 112 -423 79 -395 -19 15 -48 96 -83
232 -14 58 -32 125 -39 150 -7 25 -11 51 -9 57 8 23 39 -4 52 -44z m-5165 -32
c13 -21 -285 -273 -302 -256 -8 8 69 103 131 162 35 33 84 69 108 81 49 25 55
26 63 13z m2846 -42 c0 -6 -13 -43 -29 -82 -15 -40 -38 -103 -50 -142 -37
-115 -102 -275 -112 -275 -16 0 -10 42 30 197 43 165 65 224 107 278 25 34 54
47 54 24z m-1930 -26 c0 -5 -13 -21 -28 -38 -15 -16 -55 -66 -89 -110 -108
-141 -366 -375 -389 -352 -12 12 111 159 234 277 209 203 272 254 272 223z
m4573 -98 c58 -113 123 -345 97 -345 -15 0 -37 40 -60 110 -31 96 -89 323 -80
313 4 -4 23 -39 43 -78z m519 -310 c149 -237 231 -566 199 -790 -15 -105 -77
-297 -132 -413 -58 -120 -150 -226 -255 -292 -35 -22 -65 -40 -66 -40 -4 0 -1
95 6 170 7 74 12 99 61 295 36 149 46 195 96 455 29 153 31 182 33 395 0 127
-3 253 -8 280 l-8 50 18 -25 c11 -14 36 -52 56 -85z m-6082 29 c0 -21 -204
-240 -242 -260 -71 -37 -63 -6 25 96 87 101 217 199 217 164z m1130 -66 c0
-36 -254 -392 -330 -463 l-32 -30 17 35 c27 53 64 108 122 182 29 37 53 71 53
76 0 12 120 184 139 199 20 16 31 16 31 1z m1795 -145 c-9 -54 -18 -100 -21
-104 -2 -3 -6 -35 -9 -70 -3 -35 -11 -89 -17 -119 -10 -50 -11 -53 -20 -30 -6
14 -8 78 -5 145 5 124 32 246 65 295 l17 25 3 -23 c2 -12 -4 -66 -13 -119z
m1780 -64 c33 -205 38 -356 11 -328 -7 7 -55 290 -66 393 -8 75 -8 102 2 113
18 23 24 3 53 -178z m1187 23 c2 -86 -1 -117 -16 -159 -11 -29 -23 -50 -28
-47 -8 5 -1 336 9 364 12 37 33 -57 35 -158z m-6932 135 c0 -8 -19 -43 -42
-78 -22 -35 -58 -95 -79 -134 l-39 -70 0 41 c0 63 66 180 134 236 25 21 26 21
26 5z m4602 -32 c5 -16 10 -174 11 -350 2 -288 0 -328 -17 -395 -11 -41 -23
-79 -27 -84 -16 -19 -21 98 -17 472 3 381 4 393 22 390 12 -2 23 -15 28 -33z
m-4158 -31 c9 -3 16 -10 16 -16 0 -27 -312 -457 -337 -466 -45 -14 29 177 100
258 18 20 45 52 61 71 57 68 138 159 141 159 2 0 10 -3 19 -6z m3132 -156
c-23 -124 -72 -307 -97 -360 -43 -92 -51 -48 -19 103 11 52 20 104 20 117 0
39 95 241 107 228 2 -2 -3 -42 -11 -88z m-1816 76 c0 -8 -106 -140 -165 -204
-27 -31 -77 -87 -109 -125 -122 -142 -238 -245 -189 -167 113 181 395 502 440
502 13 0 23 -2 23 -6z m-460 -19 c0 -3 -22 -33 -50 -66 -27 -33 -50 -65 -50
-70 0 -6 -50 -62 -112 -125 -141 -145 -186 -154 -110 -24 15 25 25 50 23 55
-1 6 0 7 4 3 4 -4 20 9 37 28 37 42 207 189 228 197 20 7 30 8 30 2z m5375
-323 c22 -239 18 -349 -15 -417 l-24 -50 -5 40 c-3 22 -4 81 -1 130 3 50 1
175 -3 278 -5 104 -6 201 -2 215 15 60 32 -9 50 -196z m-1849 -37 c3 -13 4
-120 1 -237 -3 -157 -8 -222 -19 -248 l-15 -35 -8 54 c-7 53 3 468 12 484 9
15 23 6 29 -18z m-4228 -33 c-27 -67 -47 -103 -104 -187 -59 -86 -144 -185
-144 -167 0 4 27 62 59 127 40 81 80 143 122 192 62 73 88 86 67 35z m1662 29
c0 -5 -7 -15 -17 -22 -32 -27 -255 -311 -290 -370 -29 -49 -93 -114 -93 -95 0
25 72 143 133 218 24 29 63 80 87 113 72 98 180 192 180 156z m4121 -128 c0
-16 1 -120 1 -233 1 -174 -2 -211 -16 -244 -12 -26 -21 -35 -28 -28 -11 11
-11 295 0 505 2 20 7 27 22 27 15 0 20 -7 21 -27z m-2618 10 c8 -13 -12 -304
-23 -353 -13 -55 -43 -130 -51 -130 -16 0 -18 60 -9 202 13 199 18 226 43 260
21 28 32 34 40 21z m1746 -114 c12 -53 15 -346 5 -373 -13 -33 -21 -14 -28 60
-3 43 -10 82 -15 88 -10 13 -15 254 -5 279 10 28 31 2 43 -54z m-3844 -6 c-64
-109 -198 -268 -384 -452 -107 -107 -196 -190 -198 -185 -7 21 25 88 67 141
25 30 81 96 125 147 44 50 94 107 110 126 117 137 287 291 303 275 3 -2 -8
-26 -23 -52z m3397 -50 c19 -42 20 -65 20 -277 -2 -556 -44 -584 -62 -41 -5
154 -12 293 -15 309 -5 28 8 56 27 56 5 0 18 -21 30 -47z m-4229 -145 c-20
-35 -39 -65 -43 -68 -4 -3 -40 -63 -80 -135 -40 -71 -87 -152 -104 -180 -45
-72 -156 -218 -156 -205 0 18 51 161 73 205 27 55 117 192 199 302 61 82 120
143 140 143 4 0 -9 -28 -29 -62z m-764 -143 c-21 -55 -48 -118 -58 -140 -10
-22 -33 -87 -51 -143 -19 -59 -43 -115 -57 -130 l-24 -27 7 70 c8 93 19 136
59 222 46 98 150 261 161 251 2 -2 -15 -49 -37 -103z m2187 -19 c5 -14 -24
-79 -56 -126 -10 -14 -32 -54 -51 -90 -67 -131 -301 -461 -317 -446 -9 10 118
267 175 352 33 49 68 104 78 123 9 19 40 66 68 105 67 95 91 113 103 82z
m1788 -8 c12 -46 6 -372 -8 -423 -13 -50 -14 -50 -24 -23 -23 56 -34 161 -30
281 3 99 7 128 23 155 23 38 31 40 39 10z m-1410 -75 c-18 -84 -153 -353 -226
-450 -68 -92 -84 -102 -74 -47 10 53 55 149 108 231 24 37 71 119 104 180 41
79 64 113 77 113 14 0 16 -6 11 -27z m-1025 -201 c-33 -97 -201 -422 -241
-466 l-38 -41 29 80 c45 126 89 231 120 293 39 77 130 204 141 197 5 -3 0 -31
-11 -63z m4031 -22 c14 -59 16 -273 3 -315 -8 -24 -11 -5 -17 95 -3 69 -9 158
-13 198 -7 85 9 98 27 22z m-4847 -242 c-3 -13 -29 -97 -59 -188 -30 -91 -65
-208 -78 -260 l-25 -95 0 60 c-1 80 34 300 54 349 20 48 92 156 104 156 5 0 7
-10 4 -22z m315 -87 c-11 -31 -24 -61 -29 -66 -4 -6 -18 -51 -31 -100 -20 -77
-23 -85 -26 -54 -6 70 64 276 93 276 10 0 9 -13 -7 -56z m4851 0 c18 -33 41
-165 41 -235 0 -37 7 -95 16 -129 26 -102 -5 -175 -39 -89 -22 58 -35 154 -41
305 -6 157 0 192 23 148z m-3149 -30 c0 -5 -11 -52 -24 -105 -26 -102 -91
-234 -146 -296 -28 -32 -30 -33 -24 -10 3 14 25 65 49 115 59 125 99 226 97
250 -1 11 6 27 15 37 17 19 33 24 33 9z m-2652 -201 c-11 -52 -23 -115 -28
-140 -9 -50 -31 -110 -41 -110 -3 0 -4 46 -1 103 3 81 11 124 40 212 36 110
36 110 43 70 5 -27 1 -70 -13 -135z m6350 57 c6 -56 20 -132 31 -167 23 -72
27 -125 10 -114 -15 9 -70 133 -75 169 -2 17 -7 48 -9 69 -6 40 13 146 25 146
4 0 12 -46 18 -103z m-1043 -129 c0 -82 -4 -131 -11 -138 -18 -18 -34 73 -34
190 0 70 4 100 13 103 24 8 32 -30 32 -155z m-3295 101 c0 -22 -64 -219 -82
-252 -17 -32 -26 -2 -16 51 25 136 98 286 98 201z m-435 -50 c4 -5 -14 -53
-39 -105 -25 -52 -46 -103 -46 -114 0 -11 -4 -20 -9 -20 -8 0 1 77 14 123 11
36 58 127 66 127 4 0 11 -5 14 -11z m1485 -19 c-21 -72 -100 -220 -100 -187 0
16 61 191 70 203 23 26 40 17 30 -16z"/>
<path d="M3166 9214 l-49 -15 8 -82 c4 -45 9 -244 10 -441 2 -197 7 -371 10
-387 3 -15 2 -54 -4 -86 -6 -32 -13 -158 -16 -280 l-6 -223 54 0 c54 0 55 0
58 33 2 17 0 129 -4 247 -5 118 -10 332 -11 475 -2 143 -4 271 -5 285 -4 54
12 320 20 320 4 0 34 -33 67 -72 131 -162 239 -319 289 -420 52 -106 53 -108
53 -200 0 -51 5 -111 11 -133 8 -29 8 -40 0 -43 -8 -3 -11 -78 -11 -248 l0
-244 49 0 50 0 -5 193 c-2 105 -9 297 -14 425 -7 155 -7 303 0 440 5 114 12
259 15 323 l5 117 -27 5 c-16 3 -41 3 -56 0 l-29 -6 5 -263 c2 -145 2 -266 -1
-268 -4 -5 -132 163 -199 262 -28 41 -217 303 -218 301 0 0 -22 -7 -49 -15z"/>
<path d="M4950 9215 l-35 -13 2 -88 c1 -49 2 -100 3 -114 10 -165 18 -906 11
-1075 -4 -121 -7 -221 -7 -221 1 -1 26 -4 57 -7 l57 -5 64 91 c36 51 84 128
108 172 24 44 68 118 98 165 31 47 55 91 55 98 0 7 14 27 31 46 17 18 50 61
74 96 36 55 42 70 42 117 0 53 -2 56 -114 206 -62 84 -127 165 -145 181 -17
17 -31 38 -31 48 0 21 -64 117 -180 271 -38 50 -39 51 -90 32z m181 -312 c62
-87 132 -180 154 -208 54 -64 145 -207 145 -227 0 -21 -27 -73 -75 -142 -23
-34 -65 -99 -93 -146 -28 -47 -72 -117 -99 -156 -26 -38 -69 -101 -94 -138
l-47 -67 -7 48 c-4 26 -6 138 -4 248 3 193 3 311 2 480 -1 44 -1 148 -1 230
-1 83 -3 172 -7 198 -4 30 -2 46 4 43 5 -3 60 -77 122 -163z"/>
<path d="M6893 9217 c-17 -7 -34 -15 -37 -18 -3 -3 -1 -88 5 -190 14 -228 14
-881 0 -1089 -16 -237 -19 -216 37 -218 70 -3 75 3 68 84 -3 38 -7 182 -9 319
-2 138 -5 363 -7 500 -2 138 -3 308 -2 378 l2 128 26 -20 c15 -12 30 -21 34
-21 3 0 75 -67 158 -150 l153 -149 -16 -37 c-15 -36 -42 -72 -203 -264 -93
-111 -93 -94 2 -244 31 -50 56 -94 56 -99 0 -5 25 -54 55 -109 31 -55 72 -139
91 -186 20 -48 43 -101 51 -119 l15 -32 49 24 c57 30 61 46 20 95 -15 19 -43
62 -61 95 -18 33 -39 67 -45 75 -7 8 -15 28 -19 43 -4 16 -31 67 -62 115 -67
107 -64 102 -102 183 l-30 66 42 49 c23 27 56 69 73 94 17 25 41 54 53 65 13
11 45 46 71 78 44 52 49 63 49 106 0 40 -5 52 -33 79 -18 18 -37 32 -41 32 -5
0 -43 33 -85 74 -161 156 -297 276 -311 275 -8 0 -29 -6 -47 -12z"/>
<path d="M2675 8954 c4 -148 11 -289 16 -314 6 -30 6 -83 0 -155 -6 -61 -11
-261 -13 -445 l-2 -335 30 -3 c17 -2 42 1 56 7 21 8 25 15 21 38 -12 72 -20
984 -11 1188 12 256 12 264 4 272 -3 3 -28 8 -56 11 l-50 5 5 -269z"/>
<path d="M4562 9177 c-44 -113 -250 -496 -320 -595 -13 -17 -32 -51 -43 -76
l-20 -46 56 -97 c31 -54 63 -103 71 -109 8 -6 14 -17 14 -24 0 -7 15 -42 34
-79 79 -155 206 -418 211 -437 9 -36 43 -36 92 -2 23 17 43 33 43 34 0 2 -20
28 -45 58 -25 31 -45 59 -45 62 0 3 -42 81 -94 173 -178 317 -237 434 -231
460 4 14 40 83 81 153 42 71 81 141 87 156 21 49 157 259 198 305 36 42 37 45
21 60 -9 8 -34 22 -55 31 l-39 16 -16 -43z"/>
<path d="M5720 9213 c-3 -45 3 -334 9 -463 9 -173 -2 -990 -13 -1025 -6 -18
-2 -21 26 -23 18 -2 44 0 59 3 l26 6 -3 157 c-18 787 -18 1077 1 1263 l8 76
-33 6 c-43 9 -80 9 -80 0z"/>
<path d="M4074 9202 c-7 -5 -7 -97 0 -317 11 -360 13 -531 6 -815 -2 -113 -1
-213 4 -222 6 -13 4 -18 -8 -18 -13 0 -16 -12 -16 -65 l0 -65 61 0 62 0 -9 83
c-4 45 -8 222 -9 392 -1 171 -5 335 -9 365 -4 32 -1 169 8 325 9 149 16 287
16 308 l0 37 -47 0 c-27 0 -53 -4 -59 -8z"/>
<path d="M6188 9202 l-26 -3 -1 -397 c0 -218 3 -424 7 -457 4 -33 4 -139 0
-235 -5 -96 -9 -226 -10 -289 l-3 -115 237 -2 237 -2 7 44 c3 25 4 47 2 49 -8
8 -51 7 -163 -4 -60 -7 -133 -9 -162 -5 l-53 6 -2 127 c-1 69 -3 142 -5 161
-6 56 -4 230 3 293 l6 58 112 -6 c61 -3 125 -8 143 -11 34 -5 39 2 46 66 l2
25 -157 -4 -156 -3 -7 87 c-4 49 -4 124 1 169 5 45 9 145 9 223 0 162 -2 159
93 148 26 -3 81 -8 122 -11 41 -2 89 -6 105 -7 29 -2 30 -1 33 49 l3 51 -198
-1 c-109 -1 -210 -2 -225 -4z"/>
<path d="M4685 4349 c-27 -16 -96 -47 -153 -70 -57 -23 -101 -43 -99 -45 10
-10 307 124 307 138 0 4 -1 8 -2 7 -2 -1 -25 -14 -53 -30z"/>
<path d="M5994 4321 c3 -4 27 -11 53 -14 59 -7 277 -79 357 -118 33 -16 65
-29 73 -29 7 0 13 -4 13 -8 0 -5 12 -15 28 -23 97 -49 433 -335 528 -449 20
-25 35 -40 33 -33 -9 27 -141 163 -258 265 -132 116 -254 207 -336 253 -138
76 -516 197 -491 156z"/>
<path d="M4215 4211 c-208 -94 -525 -260 -578 -304 -12 -9 7 -1 43 19 168 95
419 222 555 280 135 59 187 86 160 83 -6 0 -86 -35 -180 -78z"/>
<path d="M4664 4217 c-21 -18 -65 -50 -96 -71 -32 -22 -58 -41 -58 -43 0 -5 7
-1 90 53 78 51 129 93 114 94 -6 0 -28 -15 -50 -33z"/>
<path d="M4340 4201 c-140 -61 -160 -70 -160 -76 0 -2 26 7 58 21 31 14 84 37
117 51 33 14 62 27 64 29 11 11 -20 1 -79 -25z"/>
<path d="M5994 4198 c43 -25 183 -71 213 -69 35 1 63 -10 146 -58 32 -19 54
-37 50 -43 -3 -7 -1 -8 5 -4 13 8 41 -4 41 -18 0 -4 27 -25 60 -45 33 -20 90
-55 128 -78 37 -22 76 -50 86 -61 11 -12 26 -18 34 -15 10 4 5 12 -21 27 -19
11 -106 69 -193 127 -87 59 -179 119 -205 133 -50 29 -189 76 -225 76 -12 0
-45 9 -73 20 -56 22 -76 26 -46 8z"/>
<path d="M4890 4186 c0 -24 20 -56 70 -109 78 -84 142 -97 208 -44 23 17 41
35 41 40 2 14 -79 87 -101 91 -13 2 -57 9 -98 15 -41 6 -85 14 -97 17 -17 5
-23 2 -23 -10z m250 -66 l35 -31 -55 27 c-68 32 -69 34 -39 34 14 0 40 -14 59
-30z"/>
<path d="M5542 4135 c-42 -38 -46 -71 -13 -107 20 -23 33 -28 70 -28 87 1 147
43 183 130 l15 35 -111 1 c-110 0 -110 0 -144 -31z m114 3 c3 -4 -5 -8 -17 -8
-12 0 -42 -12 -66 -26 -55 -32 -69 -22 -26 17 24 21 42 28 68 27 20 -1 38 -5
41 -10z"/>
<path d="M6227 4109 c7 -7 15 -10 18 -7 3 3 -2 9 -12 12 -14 6 -15 5 -6 -5z"/>
<path d="M6267 4089 c7 -7 15 -10 18 -7 3 3 -2 9 -12 12 -14 6 -15 5 -6 -5z"/>
<path d="M6354 4046 c11 -9 24 -16 30 -16 12 0 7 5 -24 19 -24 11 -24 11 -6
-3z"/>
<path d="M4645 3953 c-69 -65 -78 -77 -30 -35 68 59 143 132 134 132 -2 -1
-49 -44 -104 -97z"/>
<path d="M6095 3979 c22 -11 60 -33 85 -47 73 -42 194 -102 198 -97 2 2 -36
24 -85 48 -48 25 -115 61 -147 81 -33 20 -67 36 -75 36 -9 0 2 -9 24 -21z"/>
<path d="M3487 3886 c-200 -181 -370 -399 -454 -583 -14 -30 -23 -56 -20 -59
2 -3 17 24 31 59 62 144 273 419 423 549 91 80 141 128 130 128 -3 0 -52 -42
-110 -94z"/>
<path d="M4204 3832 c-163 -123 -273 -214 -273 -225 -1 -4 32 20 72 54 39 35
133 108 207 162 160 118 144 106 139 111 -2 2 -68 -44 -145 -102z"/>
<path d="M4796 3888 c-28 -29 -69 -68 -91 -86 l-40 -33 45 30 c47 30 161 141
146 141 -5 0 -32 -24 -60 -52z"/>
<path d="M5980 3923 c0 -15 39 -47 115 -95 93 -59 155 -94 130 -73 -11 9 -49
34 -85 55 -36 21 -86 57 -112 80 -27 23 -48 38 -48 33z"/>
<path d="M3988 3844 c-184 -146 -349 -299 -430 -399 -23 -27 -9 -15 31 27 81
87 262 249 399 357 84 66 100 81 88 81 -2 0 -42 -30 -88 -66z"/>
<path d="M3564 3854 l-39 -35 43 32 c38 30 48 39 39 39 -2 0 -21 -16 -43 -36z"/>
<path d="M5177 3873 c-2 -5 -12 -31 -21 -60 -25 -75 -68 -161 -110 -218 l-37
-50 37 40 c38 41 121 203 134 262 8 31 6 42 -3 26z"/>
<path d="M5401 3869 c-3 -53 84 -319 111 -335 5 -3 2 11 -7 33 -38 87 -77 202
-90 258 -7 33 -13 53 -14 44z"/>
<path d="M5800 3874 c0 -13 104 -136 152 -179 46 -41 134 -95 154 -95 4 0 -21
17 -55 38 -72 43 -130 98 -197 183 -46 57 -54 66 -54 53z"/>
<path d="M4988 3853 c-9 -10 -23 -33 -33 -52 -10 -19 -40 -59 -68 -88 -27 -29
-48 -56 -45 -59 9 -8 111 111 141 165 29 53 31 63 5 34z"/>
<path d="M7070 3841 c0 -6 35 -47 77 -91 43 -45 82 -88 87 -98 5 -9 27 -41 49
-71 21 -29 77 -127 124 -217 46 -90 87 -164 89 -164 14 0 -184 367 -233 431
-69 91 -193 226 -193 210z"/>
<path d="M6391 3826 c2 -3 29 -18 59 -34 30 -16 87 -46 125 -67 39 -21 66 -34
60 -28 -5 6 -37 25 -70 44 -33 18 -82 45 -110 61 -44 24 -77 37 -64 24z"/>
<path d="M5597 3783 c45 -109 107 -204 145 -224 19 -10 18 -6 -8 22 -38 41
-97 138 -120 197 -9 23 -20 42 -25 42 -4 0 -1 -17 8 -37z"/>
<path d="M3489 3793 c-13 -16 -12 -17 4 -4 16 13 21 21 13 21 -2 0 -10 -8 -17
-17z"/>
<path d="M6780 3806 c0 -2 7 -7 16 -10 8 -3 12 -2 9 4 -6 10 -25 14 -25 6z"/>
<path d="M5991 3767 c2 -1 13 -9 24 -17 19 -14 19 -14 6 3 -7 9 -18 17 -24 17
-6 0 -8 -1 -6 -3z"/>
<path d="M6270 3720 c25 -22 112 -70 127 -70 4 0 -14 13 -42 28 -27 15 -63 36
-80 46 l-30 18 25 -22z"/>
<path d="M5286 3698 c-2 -7 -8 -34 -15 -61 -26 -109 -100 -175 -208 -187 -132
-13 -316 2 -423 35 -25 7 -60 17 -77 20 -54 11 -39 -13 25 -42 31 -14 86 -39
122 -55 192 -89 361 -133 560 -143 148 -8 243 3 390 46 132 38 355 148 355
175 0 12 -6 18 -15 15 -8 -2 -46 -12 -85 -23 -39 -10 -141 -24 -233 -30 -290
-21 -346 8 -359 189 -4 53 -10 73 -20 73 -7 0 -15 -6 -17 -12z m-579 -254 c-3
-3 -12 -4 -19 -1 -8 3 -5 6 6 6 11 1 17 -2 13 -5z m46 -11 c-7 -2 -19 -2 -25
0 -7 3 -2 5 12 5 14 0 19 -2 13 -5z m197 -38 c136 -24 175 -26 437 -26 261 -1
295 1 367 20 78 21 115 21 62 1 -133 -50 -703 -60 -879 -15 -110 28 -167 46
-167 52 0 3 7 2 16 -1 8 -3 82 -17 164 -31z"/>
<path d="M3457 3615 c-85 -84 -172 -188 -235 -282 -50 -74 -152 -264 -152
-283 0 -8 20 27 44 76 85 175 221 358 369 496 40 37 67 68 62 68 -6 0 -45 -34
-88 -75z"/>
<path d="M6660 3679 c28 -19 152 -80 156 -77 4 4 -153 88 -164 88 -4 0 0 -5 8
-11z"/>
<path d="M4809 3633 c-13 -16 -12 -17 4 -4 9 7 17 15 17 17 0 8 -8 3 -21 -13z"/>
<path d="M6430 3635 c14 -8 30 -14 35 -14 6 0 -1 6 -15 14 -14 8 -29 14 -35
14 -5 0 1 -6 15 -14z"/>
<path d="M6855 3585 c17 -8 37 -14 45 -14 8 0 -1 7 -20 14 -46 18 -64 17 -25
0z"/>
<path d="M6071 3539 c55 -41 102 -69 116 -69 4 0 -12 11 -36 25 -24 14 -60 39
-81 55 -21 17 -41 30 -46 30 -4 0 17 -18 47 -41z"/>
<path d="M3849 3533 l-34 -38 38 34 c20 19 37 36 37 38 0 8 -8 0 -41 -34z"/>
<path d="M3950 3517 c-19 -17 -46 -39 -60 -48 -14 -9 -22 -20 -19 -23 3 -3 32
19 65 49 32 30 57 54 54 54 -3 0 -21 -14 -40 -32z"/>
<path d="M3989 3409 c-73 -62 -128 -110 -122 -108 12 4 263 211 263 216 0 8
-18 -6 -141 -108z"/>
<path d="M6800 3505 c0 -2 19 -17 43 -33 23 -16 78 -67 122 -112 44 -45 114
-109 155 -142 l75 -60 -65 59 c-36 32 -103 98 -150 147 -90 94 -180 165 -180
141z"/>
<path d="M6404 3478 c31 -27 126 -82 126 -74 0 2 -24 18 -52 36 -29 17 -64 38
-78 47 -19 12 -18 10 4 -9z"/>
<path d="M7104 3400 c20 -25 62 -74 92 -110 30 -36 81 -101 112 -145 31 -44
59 -84 64 -90 102 -132 173 -218 204 -251 50 -52 35 -30 -53 76 -38 47 -125
160 -192 252 -67 91 -153 199 -192 240 -39 40 -55 53 -35 28z"/>
<path d="M6641 3347 c124 -61 298 -167 407 -250 69 -52 134 -95 107 -70 -52
48 -265 197 -326 228 -19 10 -36 21 -39 26 -7 10 -236 119 -247 118 -5 0 40
-24 98 -52z"/>
<path d="M4660 3318 c-30 -28 -46 -46 -35 -40 19 10 104 93 95 92 -3 -1 -30
-24 -60 -52z"/>
<path d="M5890 3353 c0 -10 43 -52 70 -69 12 -7 12 -5 -1 6 -9 9 -28 29 -43
44 -14 16 -26 25 -26 19z"/>
<path d="M3809 3253 l-24 -28 28 24 c25 23 32 31 24 31 -2 0 -14 -12 -28 -27z"/>
<path d="M5530 3239 c0 -11 4 -18 10 -14 5 3 7 12 3 20 -7 21 -13 19 -13 -6z"/>
<path d="M5313 3210 c0 -25 2 -35 4 -22 2 12 2 32 0 45 -2 12 -4 2 -4 -23z"/>
<path d="M5132 3195 c-17 -37 -14 -45 4 -12 9 16 14 31 11 33 -2 2 -9 -7 -15
-21z"/>
<path d="M3719 3173 l-34 -38 38 34 c20 19 37 36 37 38 0 8 -8 0 -41 -34z"/>
<path d="M5540 3181 c0 -11 4 -22 9 -25 4 -3 6 6 3 19 -5 30 -12 33 -12 6z"/>
<path d="M7510 3170 c6 -11 13 -20 16 -20 2 0 0 9 -6 20 -6 11 -13 20 -16 20
-2 0 0 -9 6 -20z"/>
<path d="M7202 3152 c2 -4 28 -30 58 -57 l55 -49 -55 57 c-52 55 -66 66 -58
49z"/>
<path d="M3794 3118 l-19 -23 23 19 c12 11 22 21 22 23 0 8 -8 2 -26 -19z"/>
<path d="M7557 3093 c51 -89 63 -108 63 -100 0 11 -79 147 -86 147 -3 0 8 -21
23 -47z"/>
<path d="M3739 3073 l-24 -28 28 24 c25 23 32 31 24 31 -2 0 -14 -12 -28 -27z"/>
<path d="M3368 3053 c-21 -25 -70 -104 -66 -108 2 -1 22 26 45 61 43 64 49 79
21 47z"/>
<path d="M3209 3033 c-37 -47 -64 -133 -73 -233 l-5 -65 18 85 c10 47 35 118
55 158 34 68 37 94 5 55z"/>
<path d="M7620 2976 c0 -11 30 -66 36 -66 2 0 -3 15 -12 33 -19 36 -24 44 -24
33z"/>
<path d="M3280 2909 c-6 -11 -10 -25 -8 -30 2 -5 8 4 15 21 13 34 9 40 -7 9z"/>
<path d="M7179 2886 c23 -27 55 -73 72 -103 17 -29 33 -53 35 -53 13 0 -57
107 -99 153 l-49 52 41 -49z"/>
<path d="M5703 2870 c0 -25 2 -35 4 -22 2 12 2 32 0 45 -2 12 -4 2 -4 -23z"/>
<path d="M7670 2871 c0 -6 4 -13 10 -16 6 -3 7 1 4 9 -7 18 -14 21 -14 7z"/>
<path d="M5000 2836 c0 -8 4 -17 9 -20 5 -4 7 3 4 14 -6 23 -13 26 -13 6z"/>
<path d="M5791 2834 c0 -11 3 -14 6 -6 3 7 2 16 -1 19 -3 4 -6 -2 -5 -13z"/>
<path d="M5572 2795 c0 -16 2 -22 5 -12 2 9 2 23 0 30 -3 6 -5 -1 -5 -18z"/>
<path d="M5191 2794 c0 -11 3 -14 6 -6 3 7 2 16 -1 19 -3 4 -6 -2 -5 -13z"/>
<path d="M5781 2784 c0 -11 3 -14 6 -6 3 7 2 16 -1 19 -3 4 -6 -2 -5 -13z"/>
<path d="M3492 2778 c-14 -19 -44 -79 -40 -83 2 -2 15 19 30 46 26 49 29 60
10 37z"/>
<path d="M5692 2765 c0 -16 2 -22 5 -12 2 9 2 23 0 30 -3 6 -5 -1 -5 -18z"/>
<path d="M7378 2750 c20 -22 38 -37 41 -35 5 6 -59 75 -70 75 -3 0 10 -18 29
-40z"/>
<path d="M2880 2771 c0 -6 4 -13 10 -16 6 -3 7 1 4 9 -7 18 -14 21 -14 7z"/>
<path d="M5025 2752 c12 -56 63 -228 64 -214 1 15 -59 235 -66 242 -3 3 -2
-10 2 -28z"/>
<path d="M3231 2754 c0 -11 3 -14 6 -6 3 7 2 16 -1 19 -3 4 -6 -2 -5 -13z"/>
<path d="M5772 2740 c0 -14 2 -19 5 -12 2 6 2 18 0 25 -3 6 -5 1 -5 -13z"/>
<path d="M5203 2705 c0 -27 2 -38 4 -22 2 15 2 37 0 50 -2 12 -4 0 -4 -28z"/>
<path d="M2893 2690 c0 -30 2 -43 4 -27 2 15 2 39 0 55 -2 15 -4 2 -4 -28z"/>
<path d="M3123 2685 c0 -22 2 -30 4 -17 2 12 2 30 0 40 -3 9 -5 -1 -4 -23z"/>
<path d="M7290 2713 c0 -5 10 -19 21 -33 l20 -25 -16 33 c-15 30 -25 41 -25
25z"/>
<path d="M5563 2660 c0 -25 2 -35 4 -22 2 12 2 32 0 45 -2 12 -4 2 -4 -23z"/>
<path d="M5761 2684 c0 -11 3 -14 6 -6 3 7 2 16 -1 19 -3 4 -6 -2 -5 -13z"/>
<path d="M7430 2680 c6 -11 13 -20 16 -20 2 0 0 9 -6 20 -6 11 -13 20 -16 20
-2 0 0 -9 6 -20z"/>
<path d="M7856 2578 c19 -68 38 -161 43 -208 l10 -85 -4 85 c-4 84 -53 302
-73 322 -5 5 6 -46 24 -114z"/>
<path d="M3412 2598 c-24 -76 -33 -112 -24 -104 7 8 52 160 47 164 -2 2 -12
-25 -23 -60z"/>
<path d="M5201 2634 c0 -11 3 -14 6 -6 3 7 2 16 -1 19 -3 4 -6 -2 -5 -13z"/>
<path d="M5403 2615 c0 -22 2 -30 4 -17 2 12 2 30 0 40 -3 9 -5 -1 -4 -23z"/>
<path d="M7340 2631 c0 -6 4 -13 10 -16 6 -3 7 1 4 9 -7 18 -14 21 -14 7z"/>
<path d="M2903 2590 c0 -25 2 -35 4 -22 2 12 2 32 0 45 -2 12 -4 2 -4 -23z"/>
<path d="M5202 2580 c0 -19 2 -27 5 -17 2 9 2 25 0 35 -3 9 -5 1 -5 -18z"/>
<path d="M5741 2594 c0 -11 3 -14 6 -6 3 7 2 16 -1 19 -3 4 -6 -2 -5 -13z"/>
<path d="M7480 2605 c0 -5 10 -21 21 -35 13 -17 17 -18 10 -5 -17 33 -31 51
-31 40z"/>
<path d="M3112 2580 c0 -14 2 -19 5 -12 2 6 2 18 0 25 -3 6 -5 1 -5 -13z"/>
<path d="M5552 2550 c0 -14 2 -19 5 -12 2 6 2 18 0 25 -3 6 -5 1 -5 -13z"/>
<path d="M7520 2538 c0 -3 20 -41 45 -84 25 -44 45 -75 45 -70 0 5 -14 34 -32
65 -36 65 -58 98 -58 89z"/>
<path d="M2912 2510 c0 -14 2 -19 5 -12 2 6 2 18 0 25 -3 6 -5 1 -5 -13z"/>
<path d="M5413 2450 c0 -41 2 -58 4 -37 2 20 2 54 0 75 -2 20 -4 3 -4 -38z"/>
<path d="M3382 2450 c0 -14 2 -19 5 -12 2 6 2 18 0 25 -3 6 -5 1 -5 -13z"/>
<path d="M7742 2450 c0 -8 6 -46 13 -85 8 -45 13 -57 13 -35 0 34 -25 150 -26
120z"/>
<path d="M3360 2324 c-7 -60 -9 -131 -5 -188 4 -50 11 -136 15 -191 l7 -100 2
88 c0 49 -4 131 -10 183 -8 70 -8 119 1 195 6 55 9 103 7 105 -2 3 -10 -39
-17 -92z"/>
<path d="M3123 2375 c0 -22 2 -30 4 -17 2 12 2 30 0 40 -3 9 -5 -1 -4 -23z"/>
<path d="M2931 2384 c0 -11 3 -14 6 -6 3 7 2 16 -1 19 -3 4 -6 -2 -5 -13z"/>
<path d="M7621 2355 c0 -5 6 -21 14 -35 8 -14 14 -20 14 -15 0 6 -6 21 -14 35
-8 14 -14 21 -14 15z"/>
<path d="M5190 2298 c0 -10 41 -98 45 -98 6 0 -26 83 -37 95 -4 5 -8 6 -8 3z"/>
<path d="M7662 2259 c6 -16 12 -28 14 -26 5 5 -13 57 -20 57 -3 0 0 -14 6 -31z"/>
<path d="M7772 2260 c0 -19 2 -27 5 -17 2 9 2 25 0 35 -3 9 -5 1 -5 -18z"/>
<path d="M7901 2244 c0 -11 3 -14 6 -6 3 7 2 16 -1 19 -3 4 -6 -2 -5 -13z"/>
<path d="M3245 2230 c-4 -11 -2 -53 4 -93 5 -39 13 -103 16 -142 11 -138 63
-363 96 -413 9 -15 10 -14 4 3 -31 97 -58 205 -70 280 -27 172 -46 351 -39
368 3 9 4 17 1 17 -3 0 -9 -9 -12 -20z"/>
<path d="M5461 2224 c0 -11 3 -14 6 -6 3 7 2 16 -1 19 -3 4 -6 -2 -5 -13z"/>
<path d="M5473 2140 c0 -30 2 -43 4 -27 2 15 2 39 0 55 -2 15 -4 2 -4 -28z"/>
<path d="M2882 2080 c0 -14 6 -41 13 -60 18 -46 18 -28 1 35 -9 30 -14 40 -14
25z"/>
<path d="M5462 2040 c0 -19 2 -27 5 -17 2 9 2 25 0 35 -3 9 -5 1 -5 -18z"/>
<path d="M2981 2024 c1 -21 5 -50 9 -64 5 -16 6 -2 3 35 -7 69 -13 86 -12 29z"/>
<path d="M3132 1990 c0 -14 2 -19 5 -12 2 6 2 18 0 25 -3 6 -5 1 -5 -13z"/>
<path d="M2911 1970 c0 -8 4 -22 9 -30 12 -18 12 -2 0 25 -6 13 -9 15 -9 5z"/>
<path d="M3142 1940 c0 -14 2 -19 5 -12 2 6 2 18 0 25 -3 6 -5 1 -5 -13z"/>
<path d="M7677 1935 c4 -11 10 -74 13 -140 l6 -120 2 110 c1 79 -3 119 -14
140 -8 17 -11 21 -7 10z"/>
<path d="M3006 1900 c8 -45 120 -386 135 -408 13 -21 18 -37 -61 204 -78 240
-82 249 -74 204z"/>
<path d="M2931 1910 c0 -8 4 -24 9 -35 5 -13 9 -14 9 -5 0 8 -4 24 -9 35 -5
13 -9 14 -9 5z"/>
<path d="M3151 1884 c0 -11 3 -14 6 -6 3 7 2 16 -1 19 -3 4 -6 -2 -5 -13z"/>
<path d="M2956 1820 c4 -19 11 -44 15 -55 6 -14 7 -9 3 15 -4 19 -11 44 -15
55 -6 14 -7 9 -3 -15z"/>
<path d="M3171 1814 c0 -11 3 -14 6 -6 3 7 2 16 -1 19 -3 4 -6 -2 -5 -13z"/>
<path d="M3180 1774 c0 -10 5 -26 10 -34 8 -11 9 -7 4 15 -8 37 -14 45 -14 19z"/>
<path d="M7796 1765 c-3 -9 -6 -24 -5 -33 0 -9 5 -4 10 12 9 32 6 48 -5 21z"/>
<path d="M2977 1719 c4 -13 8 -18 11 -10 2 7 -1 18 -6 23 -8 8 -9 4 -5 -13z"/>
<path d="M3201 1704 c0 -11 3 -14 6 -6 3 7 2 16 -1 19 -3 4 -6 -2 -5 -13z"/>
<path d="M7776 1674 c-4 -20 -5 -38 -3 -40 3 -3 8 11 11 32 4 20 5 38 3 40 -3
3 -8 -11 -11 -32z"/>
<path d="M7676 1629 c-4 -23 -5 -44 -2 -46 2 -2 7 14 11 37 4 23 5 43 2 46 -2
3 -7 -14 -11 -37z"/>
<path d="M3461 1644 c0 -11 3 -14 6 -6 3 7 2 16 -1 19 -3 4 -6 -2 -5 -13z"/>
<path d="M7761 1604 c0 -11 3 -14 6 -6 3 7 2 16 -1 19 -3 4 -6 -2 -5 -13z"/>
<path d="M7661 1554 c0 -11 3 -14 6 -6 3 7 2 16 -1 19 -3 4 -6 -2 -5 -13z"/>
<path d="M3376 1540 c3 -14 11 -32 16 -40 6 -10 7 -7 2 10 -3 14 -11 32 -16
40 -6 10 -7 7 -2 -10z"/>
<path d="M7736 1535 c-3 -9 -6 -22 -5 -28 0 -7 5 -1 10 12 5 13 8 26 5 28 -2
2 -6 -3 -10 -12z"/>
<path d="M7716 1475 c-9 -26 -7 -32 5 -12 6 10 9 21 6 23 -2 3 -7 -2 -11 -11z"/>
<path d="M3501 1454 c0 -11 3 -14 6 -6 3 7 2 16 -1 19 -3 4 -6 -2 -5 -13z"/>
<path d="M3521 1364 c0 -11 3 -14 6 -6 3 7 2 16 -1 19 -3 4 -6 -2 -5 -13z"/>
<path d="M3375 1165 c76 -138 185 -315 185 -300 0 6 -4 15 -9 20 -8 9 -102
168 -163 275 -11 19 -25 40 -30 45 -6 6 2 -12 17 -40z"/>
<path d="M7551 1178 c-8 -17 -46 -65 -85 -107 l-70 -76 69 67 c64 62 127 148
108 148 -5 0 -14 -14 -22 -32z"/>
<path d="M3230 1140 c6 -11 13 -20 16 -20 2 0 0 9 -6 20 -6 11 -13 20 -16 20
-2 0 0 -9 6 -20z"/>
<path d="M3250 1105 c0 -4 19 -35 42 -69 103 -151 184 -274 205 -311 12 -22
23 -35 23 -30 0 6 -15 35 -34 65 -19 30 -46 73 -59 96 -42 66 -177 257 -177
249z"/>
<path d="M7369 983 c-13 -16 -12 -17 4 -4 9 7 17 15 17 17 0 8 -8 3 -21 -13z"/>
<path d="M7035 783 c-22 -8 -48 -12 -57 -9 -10 2 -18 0 -18 -5 0 -15 53 -9 95
10 47 23 37 25 -20 4z"/>
<path d="M3725 760 c3 -5 11 -10 16 -10 6 0 7 5 4 10 -3 6 -11 10 -16 10 -6 0
-7 -4 -4 -10z"/>
<path d="M3757 729 c7 -7 15 -10 18 -7 3 3 -2 9 -12 12 -14 6 -15 5 -6 -5z"/>
<path d="M3870 613 c81 -89 128 -133 143 -133 5 0 -181 187 -214 215 -13 11
19 -26 71 -82z"/>
<path d="M3670 662 c0 -16 133 -212 174 -257 29 -32 27 -26 -12 25 -26 36 -74
105 -105 154 -31 49 -57 84 -57 78z"/>
<path d="M3890 356 c0 -2 8 -10 18 -17 15 -13 16 -12 3 4 -13 16 -21 21 -21
13z"/>
<path d="M4360 331 c0 -9 81 -33 88 -27 2 2 -17 11 -42 19 -26 9 -46 12 -46 8z"/>
<path d="M4878 333 c6 -2 18 -2 25 0 6 3 1 5 -13 5 -14 0 -19 -2 -12 -5z"/>
<path d="M4071 325 c9 -8 79 -35 79 -30 0 2 -16 12 -36 20 -37 15 -51 19 -43
10z"/>
<path d="M4790 319 c-11 -7 -4 -8 25 -3 50 8 58 14 19 14 -16 0 -36 -5 -44
-11z"/>
<path d="M4170 280 c8 -5 20 -10 25 -10 6 0 3 5 -5 10 -8 5 -19 10 -25 10 -5
0 -3 -5 5 -10z"/>
<path d="M4210 264 c0 -7 66 -34 82 -34 7 0 -7 9 -31 20 -47 22 -51 23 -51 14z"/>
<path d="M4348 213 c7 -3 16 -2 19 1 4 3 -2 6 -13 5 -11 0 -14 -3 -6 -6z"/>
<path d="M4513 183 c9 -2 25 -2 35 0 9 3 1 5 -18 5 -19 0 -27 -2 -17 -5z"/>
<path d="M6191 3094 c0 -11 3 -14 6 -6 3 7 2 16 -1 19 -3 4 -6 -2 -5 -13z"/>
<path d="M6231 2924 c0 -11 3 -14 6 -6 3 7 2 16 -1 19 -3 4 -6 -2 -5 -13z"/>
<path d="M6242 2880 c0 -14 2 -19 5 -12 2 6 2 18 0 25 -3 6 -5 1 -5 -13z"/>
<path d="M6252 2805 c0 -16 2 -22 5 -12 2 9 2 23 0 30 -3 6 -5 -1 -5 -18z"/>
<path d="M6312 2760 c0 -14 2 -19 5 -12 2 6 2 18 0 25 -3 6 -5 1 -5 -13z"/>
<path d="M6321 2715 c0 -11 6 -51 14 -90 l14 -70 -6 63 c-5 66 -21 135 -22 97z"/>
<path d="M6353 2515 c0 -22 2 -30 4 -17 2 12 2 30 0 40 -3 9 -5 -1 -4 -23z"/>
<path d="M6397 2110 c3 -58 7 -107 9 -109 8 -9 2 175 -6 194 -4 11 -5 -27 -3
-85z"/>
<path d="M6344 1744 c-4 -10 -17 -43 -30 -71 -12 -29 -21 -53 -18 -53 9 0 67
131 60 137 -3 3 -8 -3 -12 -13z"/>
<path d="M4565 2874 c-58 -121 -68 -147 -55 -139 6 3 10 10 10 16 0 5 22 55
50 111 27 56 48 103 46 106 -3 2 -26 -40 -51 -94z"/>
<path d="M4665 2929 c-4 -6 -5 -12 -2 -15 2 -3 7 2 10 11 7 17 1 20 -8 4z"/>
<path d="M4616 2823 c-6 -14 -5 -15 5 -6 7 7 10 15 7 18 -3 3 -9 -2 -12 -12z"/>
<path d="M4486 2703 c-6 -14 -5 -15 5 -6 7 7 10 15 7 18 -3 3 -9 -2 -12 -12z"/>
<path d="M4434 2458 c-9 -30 -21 -189 -13 -180 4 4 9 43 12 87 3 44 9 88 12
98 4 9 5 17 2 17 -3 0 -9 -10 -13 -22z"/>
<path d="M4482 2108 c2 -134 5 -118 10 45 2 48 0 87 -4 87 -5 0 -7 -60 -6
-132z"/>
<path d="M4411 2214 c0 -11 3 -14 6 -6 3 7 2 16 -1 19 -3 4 -6 -2 -5 -13z"/>
<path d="M4401 2164 c0 -11 3 -14 6 -6 3 7 2 16 -1 19 -3 4 -6 -2 -5 -13z"/>
<path d="M4472 1905 c0 -16 2 -22 5 -12 2 9 2 23 0 30 -3 6 -5 -1 -5 -18z"/>
<path d="M4381 1684 c0 -11 3 -14 6 -6 3 7 2 16 -1 19 -3 4 -6 -2 -5 -13z"/>
<path d="M4391 1625 c-1 -27 37 -237 45 -244 6 -6 4 4 -25 164 -11 55 -19 91
-20 80z"/>
<path d="M4501 1485 c0 -11 6 -42 13 -70 18 -65 19 -37 1 35 -7 30 -14 46 -14
35z"/>
<path d="M4442 1355 c0 -21 25 -107 27 -90 0 6 -6 33 -13 60 -8 28 -14 41 -14
30z"/>
<path d="M4532 1310 c0 -19 2 -27 5 -17 2 9 2 25 0 35 -3 9 -5 1 -5 -18z"/>
<path d="M4550 1027 c0 -22 170 -259 190 -265 13 -4 12 -2 -1 9 -13 12 -110
146 -172 239 -10 13 -17 21 -17 17z"/>
</g>
</svg>
